<?xml version="1.0" standalone="no"?>
<!DOCTYPE svg PUBLIC "-//W3C//DTD SVG 1.1//EN" "http://www.w3.org/Graphics/SVG/1.1/DTD/svg11.dtd" >
<svg>
<metadata>
Created by FontForge 20090622 at Sat Jun 25 14:04:16 2016
 By deploy user
Copyright (C) 1993; Type Market Ltd. Moscow, 119136, Box 20; phone:(095)1427712; Created by A.Kustov
</metadata>
<defs>
<font id="EuropeExt-Bold" horiz-adv-x="861" >
  <font-face 
    font-family="EuropeExt"
    font-weight="700"
    font-stretch="normal"
    units-per-em="1000"
    panose-1="4 0 8 0 0 0 0 0 0 0"
    ascent="780"
    descent="-220"
    x-height="494"
    cap-height="694"
    bbox="-27 -220 1699 896"
    underline-thickness="50"
    underline-position="-50"
    unicode-range="U+0020-U+2212"
  />
<missing-glyph horiz-adv-x="500" 
 />
    <glyph glyph-name=".notdef" horiz-adv-x="500" 
 />
    <glyph glyph-name=".null" horiz-adv-x="0" 
 />
    <glyph glyph-name="nonmarkingreturn" horiz-adv-x="333" 
 />
    <glyph glyph-name="space" unicode=" " horiz-adv-x="346" 
 />
    <glyph glyph-name="space" unicode="&#xa0;" horiz-adv-x="346" 
 />
    <glyph glyph-name="exclam" unicode="!" horiz-adv-x="333" 
d="M88 250v444h166v-444h-166zM88 0v166h166v-166h-166z" />
    <glyph glyph-name="quotedbl" unicode="&#x22;" horiz-adv-x="356" 
d="M46 708h111l-23 -227h-66zM206 708h111l-23 -227h-66z" />
    <glyph glyph-name="numbersign" unicode="#" horiz-adv-x="633" 
d="M245 689h79l-33 -130h124l34 130h78l-33 -130h130l-18 -80h-133l-25 -100h131l-20 -80h-131l-33 -135h-80l35 135h-124l-37 -135h-79l37 135h-134l17 80h138l25 100h-137l23 80h134zM396 479h-125l-25 -100h124z" />
    <glyph glyph-name="dollar" unicode="$" horiz-adv-x="907" 
d="M412 559h-112q-22 0 -36 -19t-14 -47q0 -34 13.5 -52.5t36.5 -18.5h112v137zM520 291v-160h71q57 0 84 16.5t27 65.5q0 46 -28.5 62t-82.5 16h-71zM412 753h108v-63h79q131 0 196 -44.5t65 -148.5h-166q0 21 -9 34t-30 19t-41 7.5t-54 1.5h-40v-137h80q67 0 107 -4
t74.5 -15.5t51.5 -35.5t26 -61t9 -94q0 -122 -62.5 -167t-214.5 -45h-71v-89h-108v89h-89q-135 0 -195 48t-60 151h166q1 -22 13.5 -37t32 -21t33.5 -8t28 -2h71v160h-91q-78 0 -125 11t-72 38.5t-32.5 62.5t-7.5 95q0 96 58 144t199 48h71v63z" />
    <glyph glyph-name="percent" unicode="%" horiz-adv-x="1216" 
d="M407 536q0 46 -15 61t-61 15h-114q-47 0 -62.5 -15.5t-15.5 -58.5v-88q0 -41 15.5 -55.5t62.5 -14.5h114q46 0 61 13t15 55v88zM507 429q0 -85 -32 -113t-119 -28h-162q-89 0 -122 28.5t-33 112.5v127q0 85 32 116.5t122 31.5h162q85 0 118.5 -32.5t33.5 -115.5v-127z
M757 734l-205 -761h-101l205 761h101zM1067 248q0 46 -15 61t-61 15h-114q-47 0 -62.5 -15.5t-15.5 -58.5v-88q0 -41 15.5 -55.5t62.5 -14.5h114q46 0 61 13t15 55v88zM1167 141q0 -85 -32 -113t-119 -28h-162q-89 0 -122 28.5t-33 112.5v127q0 85 32 116.5t122 31.5h162
q85 0 118.5 -32.5t33.5 -115.5v-127z" />
    <glyph glyph-name="ampersand" unicode="&#x26;" horiz-adv-x="988" 
d="M802 64q-2 -3 -6 -7t-19.5 -15t-34 -19.5t-50.5 -15.5t-68 -7h-330q-107 0 -175 60.5t-68 179.5q0 49 17 86.5t40.5 57t47.5 31.5t41 17l17 4l-4 3q-5 3 -11.5 9.5t-13.5 16t-11.5 27.5t-4.5 40q0 92 54.5 126.5t156.5 34.5h242q63 0 110.5 -18t70.5 -41t36.5 -54t16 -49
t2.5 -33l-1 -5h-166q0 27 -24 44.5t-73 17.5h-177q-44 0 -61.5 -8.5t-17.5 -36.5q0 -18 14.5 -34.5t29.5 -23.5l14 -8l344 -194q16 17 16 132h166q0 -68 -10.5 -120t-21.5 -70l-10 -18l106 -62l-72 -110zM314 340q-4 0 -11 -1t-23.5 -6.5t-29.5 -15t-23 -30t-10 -47.5
q0 -48 29.5 -75t105.5 -27h170q46 0 75.5 5t36.5 10l6 5z" />
    <glyph glyph-name="quotesingle" unicode="'" horiz-adv-x="249" 
d="M72 708h111l-22 -227h-67z" />
    <glyph glyph-name="parenleft" unicode="(" horiz-adv-x="329" 
d="M294 20v-138q-121 0 -190.5 56.5t-69.5 192.5v372q0 72 21.5 124t59.5 79.5t82 39.5t97 12v-138q-65 0 -95 -26.5t-30 -91.5v-371q0 -111 125 -111z" />
    <glyph glyph-name="parenright" unicode=")" horiz-adv-x="329" 
d="M39 20q125 0 125 111v371q0 65 -30 91.5t-95 26.5v138q53 0 97 -12t82 -39.5t59.5 -79.5t21.5 -124v-372q0 -136 -69 -192.5t-191 -56.5v138z" />
    <glyph glyph-name="asterisk" unicode="*" horiz-adv-x="344" 
d="M184 548q43 -10 89 -19q38 -8 38 -39q0 -14 -9.5 -25t-23.5 -11q-18 0 -37 20l-62 65q10 -41 25 -87q3 -10 3 -20q0 -18 -10.5 -28t-25.5 -10q-14 0 -24 10t-10 28q0 10 3 20q7 23 27 84q-2 -3 -11 -12.5l-23.5 -25t-25.5 -28.5q-16 -19 -36 -19q-15 0 -25.5 10.5
t-10.5 24.5q0 28 40 38l38.5 11l34 9.5t14.5 3.5l-88 18q-39 7 -39 38q0 16 5 24t11 9.5t18 1.5q18 0 36 -19l64 -64l-29 86q-3 11 -3 20q0 17 10 27.5t24 10.5q15 0 25.5 -10t10.5 -28q0 -10 -3 -20l-26 -86l59 67q18 19 36 19q15 0 25 -10.5t10 -24.5q0 -28 -39 -38z" />
    <glyph glyph-name="plus" unicode="+" horiz-adv-x="564" 
d="M67 392h144v145h135v-145h157v-138h-157v-144h-135v144h-144v138z" />
    <glyph glyph-name="comma" unicode="," horiz-adv-x="333" 
d="M74 -27v166h166v-166q0 -61 -9 -96t-35 -53.5t-58.5 -24t-91.5 -5.5v92q40 0 56.5 12t16.5 44v31h-45z" />
    <glyph glyph-name="period" unicode="." horiz-adv-x="308" 
d="M74 0v166h166v-166h-166z" />
    <glyph glyph-name="slash" unicode="/" horiz-adv-x="338" 
d="M341 728l-222 -817h-111l222 817h111z" />
    <glyph glyph-name="zero" unicode="0" horiz-adv-x="916" 
d="M222 254q0 -68 27 -92t103 -24h220q79 0 104.5 23t25.5 94v185q0 74 -28.5 99t-104.5 25h-214q-78 0 -105.5 -25.5t-27.5 -99.5v-185zM868 237q0 -132 -54 -184.5t-197 -52.5h-305q-139 0 -197.5 55t-58.5 182v218q0 141 56.5 194t199.5 53h305q134 0 192.5 -53
t58.5 -194v-218z" />
    <glyph glyph-name="one" unicode="1" 
d="M162 400l-88 127l215 167h275v-694h-166v545h-51z" />
    <glyph glyph-name="two" unicode="2" 
d="M806 464q0 -202 -249 -217l-216 -13q-72 -4 -96 -18t-24 -48v-37h584v-131h-750v158q0 45 10 78.5t35.5 64t77.5 49t129 22.5l220 12q65 4 88.5 24.5t23.5 69.5t-27 67t-108 18h-116q-49 0 -79 -4t-48.5 -10.5t-27 -24t-10.5 -34.5t-2 -52h-166q0 49 4.5 83t19 69.5
t41 56t73 34t111.5 13.5h250q146 0 199 -48.5t53 -181.5z" />
    <glyph glyph-name="three" unicode="3" horiz-adv-x="876" 
d="M352 290v123h189q56 0 79.5 19.5t23.5 65.5q0 45 -22.5 59t-80.5 14h-204q-52 0 -83.5 -20.5t-31.5 -63.5h-156q0 38 10.5 72.5t35 68.5t73 54t115.5 20h279q50 0 88.5 -7.5t72 -26t52 -54t18.5 -86.5q0 -88 -25 -120.5t-79 -44.5q16 -4 32.5 -13.5t36.5 -27t33 -48
t13 -69.5q0 -60 -18 -101.5t-52.5 -63.5t-75.5 -31t-95 -9h-280q-120 0 -177 48t-57 149h161q0 -22 8 -36t26 -20.5t34.5 -8t44.5 -1.5h211q53 0 78.5 16.5t25.5 65.5q0 48 -34 62.5t-119 14.5h-150z" />
    <glyph glyph-name="four" unicode="4" 
d="M750 694v-407h94v-138h-94v-149h-166v149h-518v233l387 312h297zM584 287v269h-39l-313 -247v-22h352z" />
    <glyph glyph-name="five" unicode="5" 
d="M815 233q0 -124 -56.5 -178.5t-199.5 -54.5h-249q-251 0 -251 197h166q0 -38 27.5 -52t76.5 -14h233q46 0 66.5 24.5t20.5 75.5q0 54 -20.5 79.5t-66.5 25.5h-189q-74 0 -102 -18t-35 -63h-165v439h726v-131h-560v-151q19 18 33.5 27.5t52 18.5t94.5 9h142
q76 0 126.5 -14t78.5 -44.5t39.5 -72t11.5 -103.5z" />
    <glyph glyph-name="six" unicode="6" 
d="M353 571q-77 0 -106 -19.5t-29 -74.5v-91q17 19 31 30t52.5 22t95.5 11h128q146 0 215 -43t69 -156q0 -151 -50.5 -200.5t-206.5 -49.5h-243q-129 0 -193 46t-64 144v309q0 107 58 155t199 48h243q133 0 192 -47.5t59 -149.5h-156q0 41 -29.5 53.5t-92.5 12.5h-172z
M643 216q0 55 -25 78.5t-100 23.5h-175q-72 0 -98.5 -25t-26.5 -76q0 -47 26.5 -66.5t101.5 -19.5h172q73 0 99 19.5t26 65.5z" />
    <glyph glyph-name="seven" unicode="7" 
d="M54 694h767v-115l-458 -579h-207l442 556h-544v138z" />
    <glyph glyph-name="eight" unicode="8" 
d="M351 298q-65 0 -94 -21.5t-29 -64.5q0 -44 28.5 -66.5t95.5 -22.5h178q71 0 97.5 22t26.5 67q0 42 -27 64t-97 22h-179zM351 571q-72 0 -91 -15.5t-19 -60.5q0 -43 21 -58.5t90 -15.5h178q71 0 93 16t22 58q0 45 -22.5 60.5t-92.5 15.5h-179zM569 694q133 0 187.5 -40.5
t54.5 -143.5q0 -115 -122 -149q53 -11 92 -50.5t39 -115.5q0 -195 -253 -195h-253q-127 0 -189.5 47.5t-62.5 146.5q0 79 41 118.5t92 48.5q-51 14 -85.5 50.5t-34.5 98.5q0 105 50.5 144.5t186.5 39.5h257z" />
    <glyph glyph-name="nine" unicode="9" 
d="M508 131q77 0 106 18.5t29 73.5v91q-17 -19 -31 -30t-52.5 -22t-95.5 -11h-128q-146 0 -215 43t-69 156q0 104 21.5 156t75 74t160.5 22h243q257 0 257 -192v-309q0 -107 -58.5 -154t-199.5 -47h-242q-133 0 -192 47t-59 148h156q0 -22 8 -36t27 -19.5t36.5 -7t50.5 -1.5
h172zM218 484q0 -55 25 -78.5t100 -23.5h175q72 0 98.5 25.5t26.5 75.5q0 47 -27 67.5t-101 20.5h-172q-73 0 -99 -20.5t-26 -66.5z" />
    <glyph glyph-name="colon" unicode=":" horiz-adv-x="329" 
d="M75 0v166h166v-166h-166zM75 316v166h166v-166h-166z" />
    <glyph glyph-name="semicolon" unicode=";" horiz-adv-x="329" 
d="M102 289v166h166v-166h-166zM102 -27v166h166v-166q0 -61 -9 -96t-35 -53.5t-58.5 -24t-91.5 -5.5v92q40 0 56.5 12t16.5 44v31h-45z" />
    <glyph glyph-name="less" unicode="&#x3c;" horiz-adv-x="367" 
d="M31 294v99l286 194v-134l-169 -107l169 -108v-134z" />
    <glyph glyph-name="equal" unicode="=" horiz-adv-x="538" 
d="M68 279h408v-111h-408v111zM68 479h408v-111h-408v111z" />
    <glyph glyph-name="greater" unicode="&#x3e;" horiz-adv-x="367" 
d="M333 294l-285 -190v134l169 108l-169 107v134l285 -194v-99z" />
    <glyph glyph-name="question" unicode="?" horiz-adv-x="867" 
d="M210 483h-166q0 42 13.5 79.5t41.5 69.5t78.5 51t118.5 19h271q145 0 200.5 -43.5t55.5 -155.5q0 -102 -58 -139.5t-202 -54.5q-65 -8 -83 -19t-18 -32v-37h-166v64q0 125 180 151q12 2 30.5 4t30 4t27.5 4t26 4.5t22 6t19 7.5t13.5 9.5t9.5 12.5t3 15q0 36 -36 48.5
t-125 12.5h-127q-91 0 -125 -20t-34 -61zM296 0v166h166v-166h-166z" />
    <glyph glyph-name="at" unicode="@" horiz-adv-x="652" 
d="M324 519q-46 0 -74 -32.5t-28 -72.5q0 -35 23 -61t63 -26q46 0 72 30.5t26 70.5q0 36 -22 63.5t-60 27.5zM328 668q-111 0 -174.5 -71t-63.5 -165t63 -163t175 -69q46 0 91 17t65 41l30 -36q-19 -26 -73.5 -46t-116.5 -20q-135 0 -210.5 81t-75.5 193q0 71 32 134
t99.5 105.5t158.5 42.5q35 0 72 -9t75.5 -30t68.5 -52t49 -79t19 -106q0 -62 -28.5 -108t-91.5 -46q-20 0 -35.5 4.5t-23 11t-12.5 14t-6 12t-1 7.5q-5 -8 -12.5 -16t-36.5 -20.5t-67 -12.5q-61 0 -95.5 38.5t-34.5 91.5q0 59 41.5 105.5t110.5 46.5q78 0 109 -53l3 47h46
l-20 -159q-4 -26 -4 -31q0 -41 44 -41q33 0 50.5 34t17.5 79q0 111 -72 169.5t-166 58.5z" />
    <glyph glyph-name="A" unicode="A" horiz-adv-x="983" 
d="M202 0h-194l368 694h246l365 -694h-195l-89 175h-411zM359 306h277l-132 258h-8z" />
    <glyph glyph-name="B" unicode="B" horiz-adv-x="887" 
d="M228 563v-150h339q33 0 50.5 22.5t17.5 58.5q0 32 -17.5 50.5t-51.5 18.5h-338zM62 0v694h500q120 0 179.5 -40.5t59.5 -133.5q0 -78 -19.5 -108.5t-66.5 -45.5q58 -19 85.5 -52.5t27.5 -109.5q0 -110 -56 -157t-176 -47h-534zM228 290v-159h333q64 0 82.5 16.5
t18.5 64.5q0 44 -17.5 61t-77.5 17h-339z" />
    <glyph glyph-name="C" unicode="C" horiz-adv-x="910" 
d="M696 240h167q0 -73 -10.5 -116.5t-39 -72.5t-76 -40t-125.5 -11h-309q-144 0 -198.5 53t-54.5 192v197q0 151 57.5 205.5t211.5 54.5h276q134 0 200.5 -52t66.5 -190h-166q0 55 -31 79.5t-102 24.5h-213q-84 0 -109 -23.5t-25 -104.5v-172q0 -76 29.5 -101t104.5 -25h213
q76 0 104.5 20.5t28.5 81.5z" />
    <glyph glyph-name="D" unicode="D" horiz-adv-x="897" 
d="M227 138h299q90 0 120.5 26.5t30.5 91.5v182q0 62 -32 90t-119 28h-299v-418zM61 694h536q129 0 187.5 -58.5t58.5 -194.5v-184q0 -137 -56 -197t-189 -60h-537v694z" />
    <glyph glyph-name="E" unicode="E" horiz-adv-x="834" 
d="M68 0v694h709v-131h-543v-152h526v-121h-526v-159h543v-131h-709z" />
    <glyph glyph-name="F" unicode="F" horiz-adv-x="813" 
d="M60 694h709v-138h-543v-128h527v-138h-527v-290h-166v694z" />
    <glyph glyph-name="G" unicode="G" horiz-adv-x="936" 
d="M452 407h440v-185q0 -123 -58 -172.5t-194 -49.5h-336q-130 0 -193 56.5t-63 180.5v213q0 138 59.5 195t196.5 57h333q134 0 194.5 -44.5t60.5 -168.5h-166q0 41 -29 58t-103 17h-245q-76 0 -105.5 -29t-29.5 -106v-176q0 -71 25.5 -93t107.5 -22h273q60 0 83 16.5
t23 55.5v74h-274v123z" />
    <glyph glyph-name="H" unicode="H" horiz-adv-x="864" 
d="M219 694v-266h429v266h166v-694h-166v290h-429v-290h-166v694h166z" />
    <glyph glyph-name="I" unicode="I" horiz-adv-x="328" 
d="M254 694v-694h-166v694h166z" />
    <glyph glyph-name="J" unicode="J" horiz-adv-x="776" 
d="M27 299h166v-39q0 -62 25.5 -92t88.5 -30h140q62 0 87.5 31t25.5 89v436h166v-447q0 -128 -61 -187.5t-193 -59.5h-188q-135 0 -196 60.5t-61 186.5v52z" />
    <glyph glyph-name="K" unicode="K" horiz-adv-x="909" 
d="M228 694v-259h98l303 259h249l-409 -325l425 -369h-244l-321 297h-101v-297h-166v694h166z" />
    <glyph glyph-name="L" unicode="L" horiz-adv-x="703" 
d="M60 0v694h166v-556h429v-138h-595z" />
    <glyph glyph-name="M" unicode="M" horiz-adv-x="1217" 
d="M71 694h309l230 -556h10l230 556h309v-694h-166v556h-22l-238 -556h-236l-238 556h-22v-556h-166v694z" />
    <glyph glyph-name="N" unicode="N" horiz-adv-x="1020" 
d="M66 694h279l423 -556h23v556h166v-694h-285l-417 556h-23v-556h-166v694z" />
    <glyph glyph-name="O" unicode="O" horiz-adv-x="916" 
d="M222 254q0 -68 27 -92t103 -24h220q79 0 104.5 23t25.5 94v185q0 74 -28.5 99t-104.5 25h-214q-78 0 -105.5 -25.5t-27.5 -99.5v-185zM868 237q0 -132 -54 -184.5t-197 -52.5h-305q-139 0 -197.5 55t-58.5 182v218q0 141 56.5 194t199.5 53h305q134 0 192.5 -53
t58.5 -194v-218z" />
    <glyph glyph-name="P" unicode="P" horiz-adv-x="800" 
d="M222 205v-205h-166v694h473q131 0 187.5 -56t56.5 -187q-1 -132 -57.5 -189t-184.5 -57h-309zM222 343h277q61 0 84.5 25t23.5 83q0 54 -23 79.5t-85 25.5h-277v-213z" />
    <glyph glyph-name="Q" unicode="Q" horiz-adv-x="929" 
d="M866 167l71 -51l-88 -132l-70 46q-45 -30 -142 -30h-327q-130 0 -193 54.5t-63 173.5v241q0 123 57 178t199 55h304q141 0 196.5 -52.5t55.5 -193.5v-289zM402 269l97 137q13 -9 33.5 -24.5l64.5 -47.5l73.5 -53.5t29.5 -20.5v192q0 46 -30 79t-103 33h-212
q-71 0 -103 -34.5t-32 -85.5v-188q0 -70 29 -94t106 -24h259z" />
    <glyph glyph-name="R" unicode="R" horiz-adv-x="889" 
d="M225 556v-212h347q53 0 74 24.5t21 81.5t-20.5 81.5t-74.5 24.5h-347zM845 0h-166v108q0 52 -30.5 75t-101.5 23h-322v-206h-166v694h527q120 0 183.5 -53t63.5 -191q0 -72 -27.5 -113t-73.5 -68q58 -19 85.5 -46t27.5 -79v-144z" />
    <glyph glyph-name="S" unicode="S" horiz-adv-x="897" 
d="M602 694q125 0 181 -47.5t56 -148.5h-166q0 34 -17.5 49.5t-67.5 15.5h-279q-80 0 -80 -72q0 -43 20 -57t60 -14h303q52 0 83 -3t62 -15t47 -34.5t25.5 -61t9.5 -95.5q0 -111 -53 -161t-175 -50h-335q-129 0 -179.5 46.5t-50.5 150.5h166q0 -26 24 -46t58 -20h278
q54 0 77.5 19t23.5 61t-20 60t-86 18h-246q-75 0 -120.5 8t-78.5 30.5t-46 63.5t-13 107q0 105 59.5 150.5t197.5 45.5h282z" />
    <glyph glyph-name="T" unicode="T" horiz-adv-x="800" 
d="M36 694h749v-138h-293v-556h-166v556h-290v138z" />
    <glyph glyph-name="U" unicode="U" horiz-adv-x="896" 
d="M47 694h166v-431q0 -70 29.5 -97.5t98.5 -27.5h229q63 0 92 28.5t29 97.5v430h166v-447q0 -136 -56.5 -191.5t-191.5 -55.5h-305q-131 0 -194 60.5t-63 186.5v447z" />
    <glyph glyph-name="V" unicode="V" horiz-adv-x="983" 
d="M8 694h192l288 -556h20l292 556h190l-372 -694h-240z" />
    <glyph glyph-name="W" unicode="W" horiz-adv-x="1391" 
d="M867 0l-167 472l-167 -472h-244l-270 694h172l217 -556h9l196 556h173l198 -556h12l212 556h172l-269 -694h-244z" />
    <glyph glyph-name="X" unicode="X" horiz-adv-x="984" 
d="M264 694l226 -253l226 253h225l-320 -337l359 -357h-244l-246 274l-246 -274h-244l359 357l-320 337h225z" />
    <glyph glyph-name="Y" unicode="Y" horiz-adv-x="882" 
d="M677 694h209l-357 -460v-234h-166v234l-357 460h209l230 -323z" />
    <glyph glyph-name="Z" unicode="Z" horiz-adv-x="866" 
d="M36 694h780v-140l-516 -416h516v-138h-780v136l535 420h-535v138z" />
    <glyph glyph-name="bracketleft" unicode="[" horiz-adv-x="289" 
d="M64 761h185v-59h-74v-754h77v-60l-188 1v872z" />
    <glyph glyph-name="backslash" unicode="\" horiz-adv-x="338" 
d="M6 728h111l222 -817h-111z" />
    <glyph glyph-name="bracketright" unicode="]" horiz-adv-x="289" 
d="M238 761v-872h-188v59h77v754h-75v59h186z" />
    <glyph glyph-name="asciicircum" unicode="^" horiz-adv-x="406" 
d="M39 399l147 242h40l146 -242h-33l-133 155l-135 -155h-32z" />
    <glyph glyph-name="underscore" unicode="_" horiz-adv-x="389" 
d="M1 -1h388v-55h-388v55z" />
    <glyph glyph-name="grave" unicode="`" horiz-adv-x="320" 
d="M123 758l151 -171l-38 -33l-189 130z" />
    <glyph glyph-name="a" unicode="a" horiz-adv-x="772" 
d="M218 351h-158q0 67 45 105t155 38h245q110 0 160 -47.5t50 -126.5v-320h-166v56q-24 -32 -43.5 -44t-61.5 -12h-222q-78 0 -122 31.5t-44 94.5v60q0 65 44.5 98t155.5 33h201q65 0 92 -48v62q0 36 -20.5 48t-70.5 12h-176q-39 0 -51.5 -5t-12.5 -19v-16zM297 214
q-44 0 -61.5 -12t-17.5 -44q0 -30 17 -42.5t62 -12.5h171q46 0 63.5 12t17.5 43q0 30 -18 43t-63 13h-171z" />
    <glyph glyph-name="b" unicode="b" horiz-adv-x="784" 
d="M223 694v-275l6.5 11t15.5 18.5t26.5 21.5t39.5 16.5t55 7.5h148q101 0 158 -53t57 -144v-103q0 -89 -54 -141.5t-161 -52.5h-148q-41 0 -77 16t-51 32l-15 16v-64h-166v694h166zM337 380q-52 0 -83 -26.5t-31 -67.5v-79q0 -40 31 -66.5t83 -26.5h112q60 0 87 23t27 70
v78q0 95 -114 95h-112z" />
    <glyph glyph-name="c" unicode="c" horiz-adv-x="724" 
d="M688 322h-166q0 32 -15 46t-56 14h-157q-44 0 -68.5 -25.5t-24.5 -71.5v-85q0 -40 25 -63t63 -23h160q45 0 59 13.5t14 51.5h166q0 -94 -45.5 -136.5t-172.5 -42.5h-236q-94 0 -146.5 53t-52.5 130v119q0 89 53 141.5t151 52.5h225q120 0 172 -39.5t52 -134.5z" />
    <glyph glyph-name="d" unicode="d" horiz-adv-x="784" 
d="M563 0v64q-2 -3 -6 -7t-18 -15t-29 -19.5t-39.5 -15.5t-50.5 -7h-148q-107 0 -161 52.5t-54 141.5v103q0 91 57 144t158 53h148q30 0 55 -7.5t39.5 -16.5t26.5 -21.5t15.5 -18.5l6.5 -11v275h166v-694h-166zM449 380h-112q-114 0 -114 -95v-78q0 -47 27 -70t87 -23h112
q52 0 83 26.5t31 66.5v79q0 40 -31 67t-83 27z" />
    <glyph glyph-name="e" unicode="e" horiz-adv-x="698" 
d="M510 303q0 90 -93 90h-153q-84 0 -84 -90h330zM669 211h-489v-19q0 -89 79 -89h192q59 0 59 59h159q0 -74 -46 -118t-162 -44h-243q-100 0 -152 52t-52 137v125q0 74 52 128t155 54h236q59 0 101.5 -17t66 -46.5t34 -63.5t10.5 -74v-84z" />
    <glyph glyph-name="f" unicode="f" horiz-adv-x="501" 
d="M92 0v380h-61v114h61v45q0 155 219 155h129v-114h-116q-40 0 -53 -9t-13 -39v-38h180v-114h-180v-380h-166z" />
    <glyph glyph-name="g" unicode="g" horiz-adv-x="774" 
d="M556 494h166v-517q0 -95 -57 -146t-169 -51h-239q-84 0 -138.5 47.5t-54.5 124.5h167q0 -22 20 -40t51 -18h170q39 0 61.5 20t22.5 55v103q-12 -28 -50 -50t-88 -22h-161q-99 0 -153.5 52t-54.5 129v127q0 88 58.5 137t156.5 49h151q29 0 53.5 -6t39 -13.5t26.5 -17.5
t16 -15.5t6 -9.5v62zM556 208v76q0 43 -29 69.5t-83 26.5h-114q-115 0 -115 -96v-75q0 -95 116 -95h114q52 0 81.5 27t29.5 67z" />
    <glyph glyph-name="h" unicode="h" horiz-adv-x="781" 
d="M718 0h-166v255q0 65 -27.5 95t-90.5 30h-81q-63 0 -97.5 -36t-34.5 -102v-242h-166v694h166v-271q47 71 144 71h134q111 0 165 -51t54 -143v-300z" />
    <glyph glyph-name="i" unicode="i" horiz-adv-x="298" 
d="M236 494v-494h-166v494h166zM70 694h166v-138h-166v138z" />
    <glyph glyph-name="j" unicode="j" horiz-adv-x="341" 
d="M110 494h166v-523q0 -183 -259 -183v135q93 0 93 116v455zM110 694h166v-138h-166v138z" />
    <glyph glyph-name="k" unicode="k" horiz-adv-x="647" 
d="M213 694v-377h61l167 177h187l-231 -229l252 -265h-198l-177 214h-61v-214h-166v694h166z" />
    <glyph glyph-name="l" unicode="l" horiz-adv-x="293" 
d="M231 694v-694h-166v694h166z" />
    <glyph glyph-name="m" unicode="m" horiz-adv-x="1164" 
d="M223 494v-77q32 40 66 58.5t92 18.5h97q131 0 169 -72q26 38 63 55t123 17h59q115 0 169 -50t54 -139v-305h-166v272q0 57 -21.5 82.5t-93.5 25.5h-40q-61 0 -93 -30.5t-32 -84.5v-265h-166v267q0 55 -26 84t-94 29h-49q-111 0 -111 -112v-268h-166v494h166z" />
    <glyph glyph-name="n" unicode="n" horiz-adv-x="773" 
d="M217 494v-70q2 5 5 10.5t14 17t25.5 20t40.5 15.5t58 7h134q108 0 164 -53t56 -150v-291h-166v258q0 65 -27 93.5t-90 28.5h-82q-63 0 -97.5 -34.5t-34.5 -100.5v-245h-166v494h166z" />
    <glyph glyph-name="o" unicode="o" horiz-adv-x="770" 
d="M268 496h231q105 0 161 -55.5t56 -142.5v-105q0 -87 -56.5 -140t-159.5 -53h-232q-102 0 -159.5 53.5t-57.5 141.5v103q0 86 56 142t161 56zM550 285q0 45 -27 71t-80 26h-113q-113 0 -113 -96v-81q0 -91 113 -91h113q55 0 81 21.5t26 70.5v79z" />
    <glyph glyph-name="p" unicode="p" horiz-adv-x="764" 
d="M215 494v-59q18 17 33 27.5t45 21t65 10.5h150q105 0 160.5 -49t55.5 -143v-108q0 -86 -55 -140t-161 -54h-149q-50 0 -89 21t-55 47v-268h-166v694h166zM558 207v80q0 93 -116 93h-119q-108 0 -108 -93v-80q0 -93 108 -93h119q116 0 116 93z" />
    <glyph glyph-name="q" unicode="q" horiz-adv-x="773" 
d="M556 -200v268q-16 -26 -55 -47t-89 -21h-149q-106 0 -161 54t-55 140v108q0 94 55.5 143t160.5 49h150q35 0 65 -10.5t45 -21t33 -27.5v59h166v-694h-166zM213 207q0 -93 116 -93h119q108 0 108 93v80q0 93 -108 93h-119q-116 0 -116 -93v-80z" />
    <glyph glyph-name="r" unicode="r" horiz-adv-x="683" 
d="M207 494v-72q31 40 61.5 56t80.5 16h83q64 0 108.5 -16t67 -45.5t31.5 -63t9 -76.5h-166q-5 21 -9 32.5t-14.5 26.5t-29.5 21.5t-47 6.5h-61q-50 0 -82 -34t-32 -85v-261h-166v494h166z" />
    <glyph glyph-name="s" unicode="s" horiz-adv-x="698" 
d="M228 0q-99 0 -143.5 38.5t-44.5 119.5h139q0 -55 65 -55h204q66 0 66 41q0 21 -16.5 35.5t-52.5 14.5h-237q-164 0 -164 137v30q0 63 44 99t150 36h222q113 0 158 -35t45 -121h-149q0 29 -21 41t-65 12h-188q-61 0 -61 -41q0 -44 57 -44h225q108 0 155 -31.5t47 -94.5
v-32q0 -150 -199 -150h-236z" />
    <glyph glyph-name="t" unicode="t" horiz-adv-x="667" 
d="M82 589h166v-95h310v-114h-310v-178q0 -88 79 -88h69q65 0 65 88h166q0 -35 -4.5 -61.5t-19 -54t-40 -45.5t-70.5 -29.5t-106 -11.5h-105q-95 0 -147.5 49t-52.5 135v196h-60v114h60v95z" />
    <glyph glyph-name="u" unicode="u" horiz-adv-x="796" 
d="M53 494h166v-245q0 -70 35 -102.5t108 -32.5h65q65 0 104 35.5t39 99.5v245h166v-494h-166v63q-42 -63 -143 -63h-159q-99 0 -157 52t-58 157v285z" />
    <glyph glyph-name="v" unicode="v" horiz-adv-x="676" 
d="M14 494h162l166 -356l167 356h161l-233 -494h-189z" />
    <glyph glyph-name="w" unicode="w" horiz-adv-x="1107" 
d="M691 0l-133 309l-134 -309h-188l-216 494h161l149 -356l148 356h159l149 -356l148 356h162l-216 -494h-189z" />
    <glyph glyph-name="x" unicode="x" horiz-adv-x="693" 
d="M656 494l-199 -236l219 -258h-185l-141 175l-141 -175h-185l219 258l-199 236h187l121 -150l117 150h187z" />
    <glyph glyph-name="y" unicode="y" horiz-adv-x="684" 
d="M33 494h155l138 -356h19l165 356h160l-233 -493q-35 -75 -56 -111.5t-52 -62t-65 -32t-95 -6.5h-23v114h23q44 0 67 17.5t51 79.5h-44z" />
    <glyph glyph-name="z" unicode="z" horiz-adv-x="662" 
d="M44 494h573v-128l-374 -252h374v-114h-578v133l373 247h-368v114z" />
    <glyph glyph-name="braceleft" unicode="{" horiz-adv-x="304" 
d="M302 693q-52 0 -73 -20t-21 -73v-194q0 -29 -15 -53.5t-30 -34.5l-15 -10q7 -5 17 -14t26.5 -34.5t16.5 -49.5v-194q0 -50 21.5 -69.5t72.5 -19.5v-59q-56 0 -100 13.5t-74.5 48t-30.5 86.5v194q0 52 -65 98q65 46 65 98v172q0 174 205 174v-59z" />
    <glyph glyph-name="bar" unicode="|" horiz-adv-x="200" 
d="M59 739h83v-872h-83v872z" />
    <glyph glyph-name="braceright" unicode="}" horiz-adv-x="304" 
d="M32 693v59q205 0 205 -174v-172q0 -53 65 -98q-65 -46 -65 -98v-194q0 -40 -17 -69.5t-47 -46t-65 -24.5t-76 -8v59q51 0 72.5 19.5t21.5 69.5v194q0 24 15 48.5t30 37.5l15 12q-7 4 -17 11t-26.5 32.5t-16.5 54.5v194q0 53 -21 73t-73 20z" />
    <glyph glyph-name="asciitilde" unicode="~" horiz-adv-x="591" 
d="M151 338h-93q0 3 0.5 8.5t3.5 19t9 26t18.5 27t29 25.5t44 18t60.5 7q44 0 84 -26t61 -26q31 0 48.5 13t19.5 26l2 13h89q0 -5 -1.5 -14t-11 -31.5t-24.5 -40t-47 -31.5t-75 -14q-42 0 -79 26t-68 26q-28 0 -45.5 -13t-21.5 -26z" />
    <glyph glyph-name="brokenbar" unicode="&#xa6;" horiz-adv-x="200" 
d="M59 195h83v-328h-83v328zM59 715h83v-328h-83v328z" />
    <glyph glyph-name="section" unicode="&#xa7;" horiz-adv-x="751" 
d="M517 248q72 0 72 54v26q0 19 -14.5 34.5t-36.5 15.5h-319q-55 0 -55 -62v-22q0 -21 11.5 -33.5t32.5 -12.5h309zM684 539h-138q0 24 -24 33.5t-79 9.5h-164q-39 0 -57 -10.5t-18 -40.5t17.5 -40.5t57.5 -10.5h301q63 0 103.5 -36t40.5 -95v-71q0 -45 -20 -76.5t-56 -38.5
q4 -2 10 -7t16 -25.5t10 -46.5v-31q0 -55 -44.5 -91t-125.5 -36h-293q-70 0 -112.5 44t-42.5 113h138q0 -25 20.5 -34t66.5 -9h177q40 0 59 9.5t19 39.5q0 57 -77 57h-283q-160 0 -160 128v67q0 49 24 79.5t52 38.5q-2 2 -8 8.5t-7.5 8.5l-6 8t-6.5 10t-4 10.5t-3 13.5
t-1 16v34q0 55 39 91.5t109 36.5h313q81 0 119 -42t38 -115z" />
    <glyph glyph-name="copyright" unicode="&#xa9;" horiz-adv-x="712" 
d="M504 430h58q0 -62 -27 -87t-99 -25h-154q-74 0 -102 27t-28 98v101q0 73 28 100.5t102 27.5h153q67 0 97 -25t30 -87h-58q0 35 -11.5 44.5t-57.5 9.5h-155q-50 0 -60 -9.5t-10 -58.5v-101q0 -48 11 -58.5t61 -10.5h152q48 0 59 8.5t11 45.5zM607 586q0 76 -25 99t-103 23
h-237q-75 0 -104 -25.5t-29 -97.5v-173q0 -72 28 -96t105 -24h237q81 0 104.5 22t23.5 98v174zM687 412q0 -117 -47 -158.5t-161 -41.5h-237q-114 0 -163.5 46t-49.5 154v169q0 110 48 158.5t165 48.5h237q106 0 157 -45t51 -162v-169z" />
    <glyph glyph-name="guillemotleft" unicode="&#xab;" horiz-adv-x="604" 
d="M20 252v50l270 222l60 -73l-213 -172l213 -170l-58 -75zM260 252v50l270 222l60 -73l-213 -172l213 -170l-58 -75z" />
    <glyph glyph-name="registered" unicode="&#xae;" horiz-adv-x="712" 
d="M607 586q0 76 -25 99t-103 23h-237q-75 0 -104 -25.5t-29 -97.5v-173q0 -72 28 -96t105 -24h237q81 0 104.5 22t23.5 98v174zM687 412q0 -117 -47 -158.5t-161 -41.5h-237q-114 0 -163.5 46t-49.5 154v169q0 110 48 158.5t165 48.5h237q106 0 157 -45t51 -162v-169z
M228 614v-100h204q33 0 43.5 11t10.5 49q0 21 -11 30.5t-40 9.5h-207zM228 456v-124h-58v340h253q67 0 94 -25t27 -74q0 -69 -26 -88q26 -21 26 -84v-69h-58v69q0 55 -44 55h-214z" />
    <glyph glyph-name="degree" unicode="&#xb0;" horiz-adv-x="284" 
d="M43 608q0 65 73 65h60q70 0 70 -65v-35q0 -28 -17.5 -46t-52.5 -18h-60q-73 0 -73 64v35zM74 574q0 -35 44 -35h54q43 0 43 35v33q0 36 -43 36h-54q-44 0 -44 -36v-33z" />
    <glyph glyph-name="plusminus" unicode="&#xb1;" horiz-adv-x="556" 
d="M68 202h408v-138h-408v138zM54 524h144v145h135v-145h157v-138h-157v-144h-135v144h-144v138z" />
    <glyph glyph-name="paragraph" unicode="&#xb6;" horiz-adv-x="858" 
d="M566 -56h-166v262h-116q-111 0 -177.5 69t-66.5 175q0 107 67.5 175.5t176.5 68.5h282v-750zM810 -56h-166v750h166v-750z" />
    <glyph glyph-name="periodcentered" unicode="&#xb7;" horiz-adv-x="329" 
d="M74 267v166h166v-166h-166z" />
    <glyph glyph-name="periodcentered" unicode="&#x2219;" horiz-adv-x="329" 
d="M74 267v166h166v-166h-166z" />
    <glyph glyph-name="guillemotright" unicode="&#xbb;" horiz-adv-x="613" 
d="M342 252l-265 -212l-60 72l209 167l-207 168l60 73l263 -218v-50zM591 252l-265 -212l-60 72l208 167l-206 168l60 73l263 -218v-50z" />
    <glyph glyph-name="afii10023" unicode="&#x401;" horiz-adv-x="834" 
d="M68 0v694h709v-131h-543v-152h526v-121h-526v-159h543v-131h-709zM252 874h166v-138h-166v138zM481 874h166v-138h-166v138z" />
    <glyph glyph-name="afii10053" unicode="&#x404;" horiz-adv-x="910" 
d="M629 412v-121h-413v-27q0 -76 29.5 -101t104.5 -25h213q76 0 105 20.5t29 81.5h166q0 -73 -10.5 -116.5t-39 -72.5t-76 -40t-125.5 -11h-309q-144 0 -198.5 53t-54.5 192v204q0 148 57 200.5t212 52.5h273q66 0 112 -10t83.5 -35.5t56 -73.5t18.5 -119h-165
q0 53 -31 76.5t-102 23.5h-213q-86 0 -110.5 -20.5t-24.5 -100.5v-31h413z" />
    <glyph glyph-name="afii10054" unicode="&#x405;" horiz-adv-x="564" 
d="M179 526l102 -102l102 102l98 -97l-102 -102l102 -102l-96 -95l-102 101l-106 -101l-96 95l102 102l-102 102z" />
    <glyph glyph-name="afii10055" unicode="&#x406;" horiz-adv-x="328" 
d="M254 694v-694h-166v694h166z" />
    <glyph glyph-name="afii10056" unicode="&#x407;" horiz-adv-x="338" 
d="M252 694v-694h-166v694h166zM-27 874h166v-138h-166v138zM202 874h166v-138h-166v138z" />
    <glyph glyph-name="afii10057" unicode="&#x408;" horiz-adv-x="564" 
d="M74 -27v166h166v-166q0 -61 -9 -96t-35 -53.5t-58.5 -24t-91.5 -5.5v92q40 0 56.5 12t16.5 44v31h-45zM327 -27v166h166v-166q0 -61 -9 -96t-35 -53.5t-58.5 -24t-91.5 -5.5v92q40 0 56.5 12t16.5 44v31h-45z" />
    <glyph glyph-name="afii10062" unicode="&#x40e;" horiz-adv-x="879" 
d="M657 694h197l-323 -522q-69 -113 -114.5 -142.5t-137.5 -29.5h-65v131h33q96 0 96 42q0 14 -12 32l-321 489h196l232 -391zM680 896q0 -33 -4 -53.5t-17.5 -41t-39 -31.5t-70 -18t-108.5 -7q-99 0 -151 15t-69.5 44t-17.5 83v9h135q0 -47 18 -58.5t85 -11.5q66 0 85 12
t19 58h135z" />
    <glyph glyph-name="afii10017" unicode="&#x410;" horiz-adv-x="983" 
d="M202 0h-194l368 694h246l365 -694h-195l-89 175h-411zM359 306h277l-132 258h-8z" />
    <glyph glyph-name="afii10018" unicode="&#x411;" horiz-adv-x="844" 
d="M65 694h651v-131h-485v-128h303q131 0 191 -46t60 -172t-58 -171.5t-189 -45.5h-473v694zM231 297v-159h287q64 0 82.5 16.5t18.5 64.5q0 44 -17.5 61t-77.5 17h-293z" />
    <glyph glyph-name="afii10019" unicode="&#x412;" horiz-adv-x="887" 
d="M228 563v-150h339q33 0 50.5 22.5t17.5 58.5q0 32 -17.5 50.5t-51.5 18.5h-338zM62 0v694h500q120 0 179.5 -40.5t59.5 -133.5q0 -78 -19.5 -108.5t-66.5 -45.5q58 -19 85.5 -52.5t27.5 -109.5q0 -110 -56 -157t-176 -47h-534zM228 290v-159h333q64 0 82.5 16.5
t18.5 64.5q0 44 -17.5 61t-77.5 17h-339z" />
    <glyph glyph-name="afii10020" unicode="&#x413;" horiz-adv-x="703" 
d="M60 694h595v-138h-429v-556h-166v694z" />
    <glyph glyph-name="afii10021" unicode="&#x414;" horiz-adv-x="963" 
d="M79 138q45 44 64 96t19 128v332h694v-556h77v-304h-151v166h-598v-166h-152v304h47zM690 138v418h-368v-228q0 -109 -57 -190h425z" />
    <glyph glyph-name="afii10022" unicode="&#x415;" horiz-adv-x="834" 
d="M68 0v694h709v-131h-543v-152h526v-121h-526v-159h543v-131h-709z" />
    <glyph glyph-name="afii10024" unicode="&#x416;" horiz-adv-x="1459" 
d="M645 0v297h-86l-301 -297h-222l382 369l-364 325h235l273 -259h83v259h166v-259h83l273 259h235l-364 -325l382 -369h-222l-301 297h-86v-297h-166z" />
    <glyph glyph-name="afii10025" unicode="&#x417;" horiz-adv-x="897" 
d="M276 0q-129 0 -179.5 46t-50.5 151h166q0 -26 24 -46t58 -20h278q55 0 81 18.5t26 59.5t-22.5 60.5t-89.5 19.5h-305v121h324q80 0 80 81q0 72 -80 72h-279q-49 0 -66 -15t-19 -50h-166q0 101 56 148.5t181 47.5h282q139 0 198 -45t59 -151q0 -62 -23.5 -95t-69.5 -52
q106 -38 106 -140q0 -111 -55.5 -161t-178.5 -50h-335z" />
    <glyph glyph-name="afii10026" unicode="&#x418;" horiz-adv-x="1020" 
d="M232 694v-556h23l423 556h279v-694h-166v556h-23l-417 -556h-285v694h166z" />
    <glyph glyph-name="afii10027" unicode="&#x419;" horiz-adv-x="1020" 
d="M232 694v-556h23l423 556h279v-694h-166v556h-23l-417 -556h-285v694h166zM723 896q0 -33 -4 -53.5t-17.5 -41t-39 -31.5t-70 -18t-108.5 -7q-99 0 -151 15t-69.5 44t-17.5 83v9h135q0 -47 18 -58.5t85 -11.5q66 0 85 12t19 58h135z" />
    <glyph glyph-name="afii10028" unicode="&#x41a;" horiz-adv-x="909" 
d="M228 694v-259h98l303 259h249l-409 -325l425 -369h-244l-321 297h-101v-297h-166v694h166z" />
    <glyph glyph-name="afii10029" unicode="&#x41b;" horiz-adv-x="891" 
d="M119 694h722v-694h-166v556h-390v-304q0 -252 -197 -252h-70v138q62 0 81.5 27.5t19.5 105.5v423z" />
    <glyph glyph-name="afii10030" unicode="&#x41c;" horiz-adv-x="1217" 
d="M71 694h309l230 -556h10l230 556h309v-694h-166v556h-22l-238 -556h-236l-238 556h-22v-556h-166v694z" />
    <glyph glyph-name="afii10031" unicode="&#x41d;" horiz-adv-x="864" 
d="M219 694v-266h429v266h166v-694h-166v290h-429v-290h-166v694h166z" />
    <glyph glyph-name="afii10032" unicode="&#x41e;" horiz-adv-x="916" 
d="M222 254q0 -68 27 -92t103 -24h220q79 0 104.5 23t25.5 94v185q0 74 -28.5 99t-104.5 25h-214q-78 0 -105.5 -25.5t-27.5 -99.5v-185zM868 237q0 -132 -54 -184.5t-197 -52.5h-305q-139 0 -197.5 55t-58.5 182v218q0 141 56.5 194t199.5 53h305q134 0 192.5 -53
t58.5 -194v-218z" />
    <glyph glyph-name="afii10033" unicode="&#x41f;" horiz-adv-x="864" 
d="M53 694h761v-694h-166v556h-429v-556h-166v694z" />
    <glyph glyph-name="afii10034" unicode="&#x420;" horiz-adv-x="800" 
d="M222 205v-205h-166v694h473q131 0 187.5 -56t56.5 -187q0 -132 -56.5 -189t-185.5 -57h-309zM222 556v-213h277q61 0 84.5 25t23.5 83q0 54 -23 79.5t-85 25.5h-277z" />
    <glyph glyph-name="afii10035" unicode="&#x421;" horiz-adv-x="910" 
d="M696 240h167q0 -73 -10.5 -116.5t-39 -72.5t-76 -40t-125.5 -11h-309q-144 0 -198.5 53t-54.5 192v197q0 151 57.5 205.5t211.5 54.5h276q134 0 200.5 -52t66.5 -190h-166q0 55 -31 79.5t-102 24.5h-213q-84 0 -109 -23.5t-25 -104.5v-172q0 -76 29.5 -101t104.5 -25h213
q76 0 104.5 20.5t28.5 81.5z" />
    <glyph glyph-name="afii10036" unicode="&#x422;" horiz-adv-x="800" 
d="M36 694h749v-138h-293v-556h-166v556h-290v138z" />
    <glyph glyph-name="afii10037" unicode="&#x423;" horiz-adv-x="879" 
d="M657 694h197l-323 -522q-69 -113 -114.5 -142.5t-137.5 -29.5h-65v131h33q96 0 96 42q0 14 -12 32l-321 489h196l232 -391z" />
    <glyph glyph-name="afii10038" unicode="&#x424;" horiz-adv-x="1210" 
d="M689 502v-302h171q79 0 104 23.5t25 94.5v60q0 74 -28 99t-104 25h-168zM523 695h166v-55h213q135 0 194 -52t59 -193v-94q0 -132 -55 -185.5t-198 -53.5h-213v-62h-166v62h-215q-143 0 -197 52.5t-54 184.5v95q0 141 58 193.5t193 52.5h215v55zM523 502h-167
q-76 0 -104.5 -25t-28.5 -99v-61q0 -71 25.5 -94t104.5 -23h170v302z" />
    <glyph glyph-name="afii10039" unicode="&#x425;" horiz-adv-x="984" 
d="M264 694l226 -253l226 253h225l-320 -337l359 -357h-244l-246 274l-246 -274h-244l359 357l-320 337h225z" />
    <glyph glyph-name="afii10040" unicode="&#x426;" horiz-adv-x="941" 
d="M219 138h429v556h166v-556h78v-305h-152v167h-687v694h166v-556z" />
    <glyph glyph-name="afii10041" unicode="&#x427;" horiz-adv-x="830" 
d="M213 694v-160q0 -71 29 -98.5t97 -27.5h117q64 0 98 13t57 47v226h166v-694h-166v318q-79 -48 -183 -48h-126q-131 0 -193 60t-62 186v178h166z" />
    <glyph glyph-name="afii10042" unicode="&#x428;" horiz-adv-x="1295" 
d="M1218 0h-1144v694h166v-556h323v556h166v-556h323v556h166v-694z" />
    <glyph glyph-name="afii10043" unicode="&#x429;" horiz-adv-x="1326" 
d="M1145 0h-1071v694h166v-556h323v556h166v-556h323v556h166v-556h77v-304h-150v166z" />
    <glyph glyph-name="afii10044" unicode="&#x42a;" horiz-adv-x="1016" 
d="M408 694v-259h303q131 0 191 -46t60 -172t-58 -171.5t-189 -45.5h-473v556h-223v138h389zM408 297v-159h287q64 0 82.5 16.5t18.5 64.5q0 44 -17.5 61t-77.5 17h-293z" />
    <glyph glyph-name="afii10045" unicode="&#x42b;" horiz-adv-x="1189" 
d="M67 694h166v-259h303q131 0 191 -46t60 -172t-58 -171.5t-189 -45.5h-473v694zM233 297v-159h287q64 0 82.5 16.5t18.5 64.5q0 44 -17.5 61t-77.5 17h-293zM1117 694v-694h-166v694h166z" />
    <glyph glyph-name="afii10046" unicode="&#x42c;" horiz-adv-x="816" 
d="M56 694h166v-259h303q131 0 191 -46t60 -172t-58 -171.5t-189 -45.5h-473v694zM222 297v-159h287q64 0 82.5 16.5t18.5 64.5q0 44 -17.5 61t-77.5 17h-293z" />
    <glyph glyph-name="afii10047" unicode="&#x42d;" horiz-adv-x="910" 
d="M284 413h413v30q0 80 -24.5 100.5t-110.5 20.5h-213q-71 0 -102 -23.5t-31 -76.5h-166q0 71 18.5 119t56 73.5t84 35.5t112.5 10h274q155 0 211.5 -52t56.5 -201v-203q0 -140 -54.5 -193t-198.5 -53h-309q-104 0 -157 22.5t-73.5 72.5t-20.5 146h166q0 -62 28.5 -82.5
t105.5 -20.5h213q75 0 104.5 25.5t29.5 101.5v27h-413v121z" />
    <glyph glyph-name="afii10048" unicode="&#x42e;" horiz-adv-x="1267" 
d="M562 254q0 -68 27 -92t103 -24h220q79 0 104.5 23t25.5 94v185q0 74 -28.5 99t-104.5 25h-214q-78 0 -105.5 -25.5t-27.5 -99.5v-185zM229 290v-290h-166v694h166v-266h167v28q0 141 56 193.5t200 52.5h305q135 0 193 -52.5t58 -193.5v-219q0 -132 -54 -184.5t-197 -52.5
h-305q-139 0 -197.5 55t-58.5 182v53h-167z" />
    <glyph glyph-name="afii10049" unicode="&#x42f;" horiz-adv-x="889" 
d="M680 563h-347q-54 0 -74.5 -24.5t-20.5 -81.5q0 -56 24 -81t76 -25h342v212zM680 220h-276l-166 -220h-216l203 242q-62 14 -107.5 72.5t-45.5 135.5q0 138 63.5 191t183.5 53h527v-694h-166v220z" />
    <glyph glyph-name="afii10065" unicode="&#x430;" horiz-adv-x="772" 
d="M218 351h-158q0 67 45 105t155 38h245q110 0 160 -47.5t50 -126.5v-320h-166v56q-24 -32 -43.5 -44t-61.5 -12h-222q-78 0 -122 31.5t-44 94.5v60q0 65 44.5 98t155.5 33h201q65 0 92 -48v62q0 36 -20.5 48t-70.5 12h-176q-39 0 -51.5 -5t-12.5 -19v-16zM297 214
q-44 0 -61.5 -12t-17.5 -44q0 -30 17 -42.5t62 -12.5h171q46 0 63.5 12t17.5 43q0 30 -18 43t-63 13h-171z" />
    <glyph glyph-name="afii10066" unicode="&#x431;" horiz-adv-x="784" 
d="M548 694h129q0 -157 -208 -157h-171q-91 0 -91 -94v-64q17 27 33.5 43.5t48.5 29.5t76 13h148q101 0 158.5 -52t57.5 -143v-77q0 -85 -56.5 -139t-158.5 -54h-240q-103 0 -160 53t-57 140v255q0 89 52.5 140.5t151.5 51.5h227q28 0 44 15t16 39zM337 114h112q60 0 87 23
t27 70v61q0 94 -114 94h-112q-51 0 -82.5 -30.5t-31.5 -70.5v-54q0 -40 31 -66.5t83 -26.5z" />
    <glyph glyph-name="afii10067" unicode="&#x432;" horiz-adv-x="708" 
d="M38 0v494h417q110 0 152.5 -33.5t42.5 -108.5q0 -79 -65 -103q78 -20 78 -114q0 -72 -49.5 -103.5t-148.5 -31.5h-427zM204 210v-107h244q30 0 48.5 13.5t18.5 39.5q0 54 -71 54h-240zM204 391v-89h240q57 0 57 50q0 39 -61 39h-236z" />
    <glyph glyph-name="afii10068" unicode="&#x433;" horiz-adv-x="573" 
d="M51 494h497v-114h-331v-380h-166v494z" />
    <glyph glyph-name="afii10069" unicode="&#x434;" horiz-adv-x="805" 
d="M79 114q67 68 67 185v195h568v-380h73v-263h-152v149h-461v-149h-152v263h57zM548 114v266h-242v-94q0 -104 -51 -172h293z" />
    <glyph glyph-name="afii10070" unicode="&#x435;" horiz-adv-x="698" 
d="M510 303q0 90 -93 90h-153q-84 0 -84 -90h330zM669 211h-489v-19q0 -89 79 -89h192q59 0 59 59h159q0 -74 -46 -118t-162 -44h-243q-100 0 -152 52t-52 137v125q0 74 52 128t155 54h236q59 0 101.5 -17t66 -46.5t34 -63.5t10.5 -74v-84z" />
    <glyph glyph-name="afii10072" unicode="&#x436;" horiz-adv-x="1010" 
d="M427 0v214h-61l-154 -214h-198l239 266l-218 228h187l144 -177h61v177h149v-177h61l144 177h187l-218 -228l239 -266h-198l-154 214h-61v-214h-149z" />
    <glyph glyph-name="afii10073" unicode="&#x437;" horiz-adv-x="708" 
d="M228 0q-99 0 -143.5 38t-44.5 119h149q0 -26 12 -40t43 -14h204q30 0 48.5 13.5t18.5 39.5q0 54 -71 54h-154v92h154q57 0 57 50q0 41 -61 41h-154q-42 0 -62.5 -12t-20.5 -41h-149q0 87 44 121.5t156 34.5h200q110 0 153 -34t43 -110q0 -79 -65 -103q78 -20 78 -114
q0 -72 -49 -103.5t-150 -31.5h-236z" />
    <glyph glyph-name="afii10074" unicode="&#x438;" horiz-adv-x="764" 
d="M52 0v494h149v-380h18l252 380h237v-494h-149v380h-22l-244 -380h-241z" />
    <glyph glyph-name="afii10075" unicode="&#x439;" horiz-adv-x="776" 
d="M59 0v494h149v-380h18l252 380h237v-494h-149v380h-22l-244 -380h-241zM293 695q0 -43 21.5 -56.5t58.5 -13.5q22 0 37.5 3.5t29 20t13.5 46.5h109q0 -83 -43 -117t-146 -34t-146 34t-43 117h109z" />
    <glyph glyph-name="afii10076" unicode="&#x43a;" horiz-adv-x="647" 
d="M213 494v-177h61l167 177h187l-231 -229l252 -265h-198l-177 214h-61v-214h-166v494h166z" />
    <glyph glyph-name="afii10077" unicode="&#x43b;" horiz-adv-x="758" 
d="M109 494h581v-494h-166v380h-255v-173q0 -102 -48.5 -154.5t-141.5 -52.5h-70v114q65 0 82.5 20.5t17.5 95.5v264z" />
    <glyph glyph-name="afii10078" unicode="&#x43c;" horiz-adv-x="966" 
d="M68 494h250l158 -380h23l158 380h250v-494h-149v380h-21l-164 -380h-171l-164 380h-21v-380h-149v494z" />
    <glyph glyph-name="afii10079" unicode="&#x43d;" horiz-adv-x="773" 
d="M217 494v-167h331v167h166v-494h-166v213h-331v-213h-166v494h166z" />
    <glyph glyph-name="afii10080" unicode="&#x43e;" horiz-adv-x="770" 
d="M268 496h231q105 0 161 -55.5t56 -142.5v-105q0 -87 -56.5 -140t-159.5 -53h-232q-102 0 -159.5 53.5t-57.5 141.5v103q0 86 56 142t161 56zM550 285q0 45 -27 71t-80 26h-113q-113 0 -113 -96v-81q0 -91 113 -91h113q55 0 81 21.5t26 70.5v79z" />
    <glyph glyph-name="afii10081" unicode="&#x43f;" horiz-adv-x="773" 
d="M51 494h663v-494h-166v380h-331v-380h-166v494z" />
    <glyph glyph-name="afii10082" unicode="&#x440;" horiz-adv-x="764" 
d="M215 494v-59q18 17 33 27.5t45 21t65 10.5h150q105 0 160.5 -49t55.5 -143v-108q0 -86 -55 -140t-161 -54h-149q-50 0 -89 21t-55 47v-268h-166v694h166zM558 207v80q0 93 -116 93h-119q-108 0 -108 -93v-80q0 -93 108 -93h119q116 0 116 93z" />
    <glyph glyph-name="afii10083" unicode="&#x441;" horiz-adv-x="724" 
d="M688 322h-166q0 32 -15 46t-56 14h-157q-44 0 -68.5 -25.5t-24.5 -71.5v-85q0 -40 25 -63t63 -23h160q45 0 59 13.5t14 51.5h166q0 -94 -45.5 -136.5t-172.5 -42.5h-236q-94 0 -146.5 53t-52.5 130v119q0 89 53 141.5t151 52.5h225q120 0 172 -39.5t52 -134.5z" />
    <glyph glyph-name="afii10084" unicode="&#x442;" horiz-adv-x="682" 
d="M260 0v380h-238v114h642v-114h-238v-380h-166z" />
    <glyph glyph-name="afii10085" unicode="&#x443;" horiz-adv-x="684" 
d="M33 494h155l138 -356h19l165 356h160l-233 -493q-35 -75 -56 -111.5t-52 -62t-65 -32t-95 -6.5h-23v114h23q44 0 67 17.5t51 79.5h-44z" />
    <glyph glyph-name="afii10086" unicode="&#x444;" horiz-adv-x="1155" 
d="M659 694v-259q18 17 33 27.5t45 21t65 10.5h85q105 0 160.5 -49t55.5 -143v-108q0 -86 -55 -140t-161 -54h-84q-50 0 -89 21t-55 47v-268h-166v270q-16 -26 -55 -48t-89 -22h-83q-106 0 -161.5 55t-55.5 141v108q0 94 55.5 142t160.5 48h85q82 0 143 -57v257h166z
M767 380q-54 0 -81 -24.5t-27 -68.5v-80q0 -93 108 -93h55q115 0 115 93v80q0 93 -115 93h-55zM385 380h-55q-115 0 -115 -91v-83q0 -47 28 -69.5t87 -22.5h55q108 0 108 94v80q0 44 -27 68t-81 24z" />
    <glyph glyph-name="afii10087" unicode="&#x445;" horiz-adv-x="693" 
d="M656 494l-199 -236l219 -258h-185l-141 175l-141 -175h-185l219 258l-199 236h187l121 -150l117 150h187z" />
    <glyph glyph-name="afii10088" unicode="&#x446;" horiz-adv-x="819" 
d="M217 114h331v380h166v-380h70v-263h-152v149h-581v494h166v-380z" />
    <glyph glyph-name="afii10089" unicode="&#x447;" horiz-adv-x="742" 
d="M51 494h166v-75q0 -65 27 -93.5t90 -28.5h52q61 0 88 11.5t44 40.5v145h166v-494h-166v237q-27 -32 -60.5 -43t-82.5 -11h-104q-108 0 -164 53t-56 150v108z" />
    <glyph glyph-name="afii10090" unicode="&#x448;" horiz-adv-x="1151" 
d="M57 494h166v-380h267v380h166v-380h267v380h166v-494h-1032v494z" />
    <glyph glyph-name="afii10091" unicode="&#x449;" horiz-adv-x="1179" 
d="M57 494h166v-380h267v380h166v-380h267v380h166v-380h70v-263h-149v149h-953v494z" />
    <glyph glyph-name="afii10092" unicode="&#x44a;" horiz-adv-x="911" 
d="M13 494h348v-177h293q111 0 155.5 -33t44.5 -98v-60q0 -63 -44 -94.5t-122 -31.5h-493v391h-182v103zM361 214v-111h252q45 0 62 12.5t17 42.5q0 32 -17.5 44t-61.5 12h-252z" />
    <glyph glyph-name="afii10093" unicode="&#x44b;" horiz-adv-x="1114" 
d="M56 494h166v-177h293q111 0 155.5 -33t44.5 -98v-60q0 -63 -44 -94.5t-122 -31.5h-493v494zM222 214v-111h252q44 0 61.5 12.5t17.5 42.5q0 32 -17.5 44t-61.5 12h-252zM1043 494v-494h-166v494h166z" />
    <glyph glyph-name="afii10094" unicode="&#x44c;" horiz-adv-x="772" 
d="M56 494h166v-177h293q111 0 155.5 -33t44.5 -98v-60q0 -63 -44 -94.5t-122 -31.5h-493v494zM222 214v-111h252q44 0 61.5 12.5t17.5 42.5q0 32 -17.5 44t-61.5 12h-252z" />
    <glyph glyph-name="afii10095" unicode="&#x44d;" horiz-adv-x="724" 
d="M249 302h272q0 91 -92 91h-150q-43 0 -60.5 -14.5t-17.5 -53.5h-166q0 96 54.5 133.5t177.5 37.5h216q99 0 151.5 -51t52.5 -140v-122q0 -77 -52.5 -130t-146.5 -53h-236q-128 0 -172.5 42t-44.5 137h166q0 -46 13.5 -61t58.5 -15h160q38 0 63 23t25 63v21h-272v92z" />
    <glyph glyph-name="afii10096" unicode="&#x44e;" horiz-adv-x="1087" 
d="M221 494v-172h147q0 72 57.5 122t159.5 50h232q105 0 160.5 -53.5t55.5 -141.5v-104q0 -84 -57 -139.5t-158 -55.5h-232q-103 0 -160.5 56.5t-57.5 151.5h-147v-208h-166v494h166zM867 286q0 94 -107 94h-113q-58 0 -85.5 -22.5t-27.5 -70.5v-81q0 -92 113 -92h113
q56 0 81.5 22t25.5 71v79z" />
    <glyph glyph-name="afii10097" unicode="&#x44f;" horiz-adv-x="772" 
d="M549 177h-141l-162 -177h-204l175 177q-74 0 -118 36t-44 95v61q0 63 44.5 94t122.5 31h493v-494h-166v177zM549 280v111h-252q-45 0 -62.5 -12t-17.5 -42q0 -32 18 -44.5t62 -12.5h252z" />
    <glyph glyph-name="afii10071" unicode="&#x451;" horiz-adv-x="698" 
d="M510 303q0 90 -93 90h-153q-84 0 -84 -90h330zM669 211h-489v-19q0 -89 79 -89h192q59 0 59 59h159q0 -74 -46 -118t-162 -44h-243q-100 0 -152 52t-52 137v125q0 74 52 128t155 54h236q59 0 101.5 -17t66 -46.5t34 -63.5t10.5 -74v-84zM142 695h166v-138h-166v138z
M371 695h166v-138h-166v138z" />
    <glyph glyph-name="afii10101" unicode="&#x454;" horiz-adv-x="724" 
d="M679 325h-158v20q0 25 -17.5 36.5t-59.5 11.5h-150q-93 0 -93 -91h272v-92h-272v-21q0 -40 25 -63t63 -23h160q45 0 62.5 12.5t17.5 40.5v23h158v-15q0 -56 -16.5 -89.5t-65.5 -54t-135 -20.5h-236q-94 0 -146.5 53t-52.5 130v119q0 89 53.5 141.5t151.5 52.5h216
q120 0 171.5 -37t51.5 -124v-10z" />
    <glyph glyph-name="afii10102" unicode="&#x455;" horiz-adv-x="924" 
d="M74 0v166h166v-166h-166zM369 0v166h166v-166h-166zM664 0v166h166v-166h-166z" />
    <glyph glyph-name="afii10103" unicode="&#x456;" horiz-adv-x="298" 
d="M236 494v-494h-166v494h166zM70 694h166v-138h-166v138z" />
    <glyph glyph-name="afii10104" unicode="&#x457;" horiz-adv-x="338" 
d="M250 494v-494h-166v494h166zM-24 694h166v-138h-166v138zM205 694h166v-138h-166v138z" />
    <glyph glyph-name="afii10105" unicode="&#x458;" horiz-adv-x="520" 
d="M52 392h408v-138h-408v138zM172 29v166h166v-166h-166zM172 451v166h166v-166h-166z" />
    <glyph glyph-name="afii10110" unicode="&#x45e;" horiz-adv-x="684" 
d="M33 494h155l138 -356h19l165 356h160l-233 -493q-35 -75 -56 -111.5t-52 -62t-65 -32t-95 -6.5h-23v114h23q44 0 67 17.5t51 79.5h-44zM276 695q0 -43 21.5 -56.5t58.5 -13.5q22 0 37.5 3.5t29 20t13.5 46.5h109q0 -83 -43 -117t-146 -34t-146 34t-43 117h109z" />
    <glyph glyph-name="afii10050" unicode="&#x490;" horiz-adv-x="924" 
d="M22 694h202l243 -313l251 313h189l-307 -389h117v-80h-167v-47h167v-80h-167v-98h-166v98h-166v80h166v47h-166v80h114z" />
    <glyph glyph-name="endash" unicode="&#x2013;" horiz-adv-x="733" 
d="M67 392h595v-138h-595v138z" />
    <glyph glyph-name="emdash" unicode="&#x2014;" horiz-adv-x="1107" 
d="M68 393h972v-138h-972v138z" />
    <glyph glyph-name="quoteleft" unicode="&#x2018;" horiz-adv-x="289" 
d="M203 566v-166h-166v166q0 61 9 96t35 53.5t58.5 24t91.5 5.5v-92q-40 0 -56.5 -12t-16.5 -44v-31h45z" />
    <glyph glyph-name="quoteright" unicode="&#x2019;" horiz-adv-x="316" 
d="M75 548v166h166v-166q0 -61 -9 -96t-35 -53.5t-58.5 -24t-91.5 -5.5v92q40 0 56.5 12t16.5 44v31h-45z" />
    <glyph glyph-name="quotedblleft" unicode="&#x201c;" horiz-adv-x="551" 
d="M486 565v-166h-166v166q0 61 9 96t35 53.5t58.5 24t91.5 5.5v-92q-40 0 -56.5 -12t-16.5 -44v-31h45zM215 565v-166h-166v166q0 61 9 96t35 53.5t58.5 24t91.5 5.5v-92q-40 0 -56.5 -12t-16.5 -44v-31h45z" />
    <glyph glyph-name="quotedblright" unicode="&#x201d;" horiz-adv-x="609" 
d="M107 548v166h166v-166q0 -61 -9 -96t-35 -53.5t-58.5 -24t-91.5 -5.5v92q40 0 56.5 12t16.5 44v31h-45zM378 548v166h166v-166q0 -61 -9 -96t-35 -53.5t-58.5 -24t-91.5 -5.5v92q40 0 56.5 12t16.5 44v31h-45z" />
    <glyph glyph-name="quotedblbase" unicode="&#x201e;" horiz-adv-x="564" 
d="M74 -27v166h166v-166q0 -61 -9 -96t-35 -53.5t-58.5 -24t-91.5 -5.5v92q40 0 56.5 12t16.5 44v31h-45zM327 -27v166h166v-166q0 -61 -9 -96t-35 -53.5t-58.5 -24t-91.5 -5.5v92q40 0 56.5 12t16.5 44v31h-45z" />
    <glyph glyph-name="bullet" unicode="&#x2022;" horiz-adv-x="478" 
d="M240 442q76 0 119 -47.5t43 -112.5t-43.5 -113.5t-118.5 -48.5q-80 0 -125 47t-45 111q0 65 46 114.5t124 49.5z" />
    <glyph glyph-name="ellipsis" unicode="&#x2026;" horiz-adv-x="924" 
d="M74 0v166h166v-166h-166zM369 0v166h166v-166h-166zM664 0v166h166v-166h-166z" />
    <glyph glyph-name="Euro" unicode="&#x20ac;" horiz-adv-x="860" 
d="M789 648v-139q-34 27 -95.5 47t-144.5 20q-105 0 -168 -32.5t-84 -79.5h436l-46 -89h-408q-2 -8 -2 -23q0 -19 2 -31h380l-47 -88h-311q21 -46 84 -76t165 -30q77 0 140.5 20t98.5 49v-143q-30 -19 -94.5 -36t-151.5 -17q-170 0 -272.5 59.5t-134.5 173.5h-113l46 88h56
q-1 8 -1 29q0 20 1 25h-102l46 89h67q87 239 407 239q80 0 147 -17t99 -38z" />
    <glyph glyph-name="afii61352" unicode="&#x2116;" horiz-adv-x="1423" 
d="M66 0v694h248l477 -474v474h166v-694h-199l-526 519v-519h-166zM1036 473q0 43 27.5 70t80.5 27h99q53 0 80.5 -27t27.5 -70v-54q0 -43 -28.5 -71t-79.5 -28h-99q-51 0 -79.5 27.5t-28.5 71.5v54zM1277 464q0 47 -54 47h-56q-57 0 -57 -47v-38q0 -47 57 -47h56
q54 0 54 47v38zM1021 259h343v-75h-343v75z" />
    <glyph glyph-name="trademark" unicode="&#x2122;" horiz-adv-x="1167" 
d="M40 858h441v-80h-181v-331h-80v331h-180v80zM518 858h102l184 -301l180 301h103v-411h-80v325l-192 -325h-34l-183 320v-320h-80v411z" />
    <glyph glyph-name="minus" unicode="&#x2212;" horiz-adv-x="538" 
d="M68 392h408v-138h-408v138z" />
    <glyph glyph-name="quotesinglebase" horiz-adv-x="333" 
d="M74 -27v166h166v-166q0 -61 -9 -96t-35 -53.5t-58.5 -24t-91.5 -5.5v92q40 0 56.5 12t16.5 44v31h-45z" />
    <glyph glyph-name="FLW135" horiz-adv-x="792" 
d="M742 138v-138h-698v120q53 21 80.5 51t38.5 78h-109v126h59q-21 33 -28 67t-7 99q0 67 52 114t138 47h305q74 0 124 -70t55 -158h-166q0 42 -26 66t-76 24h-150q-53 0 -71.5 -23.5t-18.5 -75.5q0 -46 41 -90h303v-126h-259q0 -29 -22 -59.5t-63 -51.5h498z" />
    <glyph glyph-name="FLW137" horiz-adv-x="1748" 
d="M407 536q0 46 -15 61t-61 15h-114q-47 0 -62.5 -15.5t-15.5 -58.5v-88q0 -41 15.5 -55.5t62.5 -14.5h114q46 0 61 13t15 55v88zM507 429q0 -85 -32 -113t-119 -28h-162q-89 0 -122 28.5t-33 112.5v127q0 85 32 116.5t122 31.5h162q85 0 118.5 -32.5t33.5 -115.5v-127z
M757 734l-205 -761h-101l205 761h101zM1067 248q0 46 -15 61t-61 15h-114q-47 0 -62.5 -15.5t-15.5 -58.5v-88q0 -41 15.5 -55.5t62.5 -14.5h114q46 0 61 13t15 55v88zM1167 141q0 -85 -32 -113t-119 -28h-162q-89 0 -122 28.5t-33 112.5v127q0 85 32 116.5t122 31.5h162
q85 0 118.5 -32.5t33.5 -115.5v-127zM1599 248q0 46 -15 61t-61 15h-114q-47 0 -62.5 -15.5t-15.5 -58.5v-88q0 -41 15.5 -55.5t62.5 -14.5h114q46 0 61 13t15 55v88zM1699 141q0 -85 -32 -113t-119 -28h-162q-89 0 -122 28.5t-33 112.5v127q0 85 32 116.5t122 31.5h162
q85 0 118.5 -32.5t33.5 -115.5v-127z" />
    <glyph glyph-name="quilsinglleft" horiz-adv-x="391" 
d="M20 252v50l270 222l60 -73l-213 -172l213 -170l-58 -75z" />
    <glyph glyph-name="quilsinglright" horiz-adv-x="370" 
d="M342 252l-265 -212l-60 72l209 167l-207 168l60 73l263 -218v-50z" />
    <glyph glyph-name="Ynotequal" horiz-adv-x="458" 
d="M37 661h388v-55h-388v55z" />
    <glyph glyph-name="FLW180" horiz-adv-x="282" 
d="M191 745l59 -67l-187 -125l-45 39z" />
    </font>
</defs>
</svg>
